HIERARCHY
ROOT hip
{
  OFFSET 0.0 0.0 0.0
  CHANNELS 6 Xposition Yposition Zposition Zrotation Yrotation Xrotation
  JOINT torso
  {
    OFFSET 0.0 0.0 0.0
    CHANNELS 3 Zrotation Xrotation Yrotation
    JOINT neck
    {
      OFFSET -8.059630999999968 325.56260699999996 64.6221310000002
      CHANNELS 3 Zrotation Xrotation Yrotation
      JOINT head
      {
        OFFSET 34.685424000000125 375.1179809999999 232.79357900000002
        CHANNELS 3 Zrotation Xrotation Yrotation
        End Site
        {
          OFFSET 0.0 0.0 0.0
        }
      }
    }
    JOINT left_collar
    {
      OFFSET -8.059630999999968 325.56260699999996 64.6221310000002
      CHANNELS 3 Zrotation Xrotation Yrotation
      JOINT left_upper_arm
      {
        OFFSET -124.124665 -15.370300999999927 25.582641999999964
        CHANNELS 3 Zrotation Xrotation Yrotation
        JOINT left_forearm
        {
          OFFSET -268.19913399999996 105.06054699999993 114.74548300000004
          CHANNELS 3 Zrotation Xrotation Yrotation
          JOINT left_hand
          {
            OFFSET -235.82003099999991 -10.198180999999977 -38.67455999999993
            CHANNELS 3 Zrotation Xrotation Yrotation
            End Site
            {
              OFFSET 0.0 0.0 0.0
            }
          }
        }
      }
    }
    JOINT right_collar
    {
      OFFSET -8.059630999999968 325.56260699999996 64.6221310000002
      CHANNELS 3 Zrotation Xrotation Yrotation
      JOINT right_upper_arm
      {
        OFFSET 162.73931899999997 -2.8598030000000563 26.244994999999903
        CHANNELS 3 Zrotation Xrotation Yrotation
        JOINT right_forearm
        {
          OFFSET 284.6506340000001 103.07031299999994 145.84521499999994
          CHANNELS 3 Zrotation Xrotation Yrotation
          JOINT right_hand
          {
            OFFSET 226.332337 -12.198241999999937 -49.27258299999994
            CHANNELS 3 Zrotation Xrotation Yrotation
            End Site
            {
              OFFSET 0.0 0.0 0.0
            }
          }
        }
      }
    }
  }
}
MOTION
Frames: 11
Frame Time: 0.01
387.0752094218938 156.9799168918757 188.93629481445777 8.220457324054898 -10.564805466840108 -4.058760666392885 0.07058019696825064 -0.13561723828363395 -0.017446768371085348 4.524147634275441 -4.159524645792262 -2.522214872548931 0.0 0.0 0.0 4.26066503362458 -0.18286589700977007 6.592446158180581 56.40583012147727 23.591021405120085 -11.361585871260802 15.750228795434017 -1.1375672975601299 -8.003839036095343 0.0 0.0 0.0 -1.8275372072658038 0.07312623157251222 -6.584372981065016 -13.8624109741186 -0.682293969360669 31.415515496604353 104.20603066103583 -1.5700329907025719 26.960836433881923 0.0 0.0 0.0
384.22579693897904 155.45482989508932 190.04917292858664 8.137815372922368 -11.157149854016302 -3.385339197194719 0.035788938838056505 -0.11986314249726973 -0.010106628886612994 4.709190226348407 -3.776449225531719 -2.664984335987597 0.0 0.0 0.0 4.3439908027929635 -0.19630840612443654 6.752461476958141 56.469722297112746 23.811632179158316 -12.337695650979352 15.586229728434029 -1.0718319488534893 -8.279476755920602 0.0 0.0 0.0 -1.8587875873173325 0.07066055138596937 -6.75288861840825 -14.788358104289632 0.02761563816116773 31.84404207260748 102.89578600666341 -3.351651349311183 28.592926493756583 0.0 0.0 0.0
381.4172681813775 153.93562193826486 191.22085400876318 8.051729528390155 -11.75820189987088 -2.7139430032983634 0.001315944574329102 -0.09847632015642628 -0.002699759171168273 4.890565791005955 -3.3923053572999864 -2.8048221496429577 0.0 0.0 0.0 4.426239221354018 -0.21147697807595336 6.920776308444614 56.522126440954096 24.032171978831126 -13.328472755786796 15.417142059812049 -1.0063947718489357 -8.555621828153281 0.0 0.0 0.0 -1.887874055351659 0.06763508412525947 -6.928839937201329 -15.762586850430825 0.795570913171806 32.250159105063396 101.24174023188185 -5.280008809969135 30.467038722790104 0.0 0.0 0.0
378.6589316647199 152.42774924387962 192.44578631857456 7.962536207099897 -12.36636105310289 -2.0466013426173038 -0.03221618256259794 -0.07148504123991406 0.004644515120763892 5.067316023920062 -3.0077946126154878 -2.941096573907697 0.0 0.0 0.0 4.5067414208744605 -0.22854782881464147 7.097812861435488 56.562976311234294 24.251999112459014 -14.331838381176325 15.243030749499818 -0.9414882367564813 -8.831224378024672 0.0 0.0 0.0 -1.9150190440712636 0.06404883615064828 -7.113029381666331 -16.783061131745317 1.6175617294144933 32.64041975574805 99.19524087546455 -7.299131925251298 32.586068812856894 0.0 0.0 0.0
375.95999327055847 150.93675148742227 193.71782797620384 7.870649227929195 -12.97991055137509 -1.3854453576794346 -0.06417937439609288 -0.03901900702775254 0.01179414146349722 5.238464713105798 -2.623607083102757 -3.073175595881303 0.0 0.0 0.0 4.584832912252341 -0.24769026084166385 7.2839787210954325 56.59225612163786 24.47043688333115 -15.345540511786718 15.064070505213259 -0.8773318908622494 -9.105317138263509 0.0 0.0 0.0 -1.9405711824315242 0.05991653441279704 -7.306117836383511 -17.846293586933268 2.4881519009738815 33.02297434033656 96.71039382852051 -9.338040987136113 34.946987603263786 0.0 0.0 0.0
373.3294283270918 149.46819296447327 195.03030523867764 7.776567955362201 -13.59703522971883 -0.7326801688357885 -0.09395790491438442 -0.0013008428861754496 0.01861850057346317 5.403029559620762 -2.2404289163739732 -3.2004339237189265 0.0 0.0 0.0 4.659865647865548 -0.2690608229361271 7.479645350620865 56.61000084466118 24.68677808280383 -16.367167583391208 14.880545507010687 -0.8141296736093746 -9.377024496590646 0.0 0.0 0.0 -1.9650030827311473 0.055268693603240965 -7.50858708321391 -18.947170384327457 3.4004937121776493 33.407643625232765 93.7494928965295 -11.311293956122313 37.53613870273224 0.0 0.0 0.0
370.7758516854291 148.02759359152637 196.37608751095928 7.680883165783359 -14.21584173690649 -0.09055136195310737 -0.12096699730451249 0.04136366699458557 0.024992669034756047 5.560036363629549 -1.8589498799806567 -3.322261265213739 0.0 0.0 0.0 4.731220158011233 -0.29279723582604195 7.685125088204817 56.61629623848572 24.90029077510202 -17.394167046980165 14.692846088745993 -0.7520676059414508 -9.645569212634593 0.0 0.0 0.0 -1.9889035662099637 0.050150788985803045 -7.720708831599464 -20.078815457581673 4.3463988494893275 33.805961483037635 90.29021638731686 -13.121575948898341 40.322724965529346 0.0 0.0 0.0
368.3073871321948 146.62035021161788 197.7476783359953 7.584279719611722 -14.834380887457549 0.5386937961786477 -0.14467173420018098 0.08859631804575097 0.030801647519891298 5.708535584482759 -1.4798703465016032 -3.4380718917843507 0.0 0.0 0.0 4.798317732249404 -0.3190122917909103 7.900647619227674 56.611278728224235 25.11022548661557 -18.42386888298964 14.501462367481787 -0.6913119017459535 -9.910276812731993 0.0 0.0 0.0 -2.0129643232369454 0.04462154531448394 -7.942522097054853 -21.232511701397915 5.31646611254106 34.23116931335259 86.33395099699027 -14.665179975888066 43.2512012574343 0.0 0.0 0.0
365.931537628074 145.25164953130377 199.13732087587348 7.487535074955997 -15.4506719198392 1.1528494634478157 -0.1646055608966069 0.13995807157328483 0.03594438775751985 5.8476210379579125 -1.1039070787371235 -3.547315336110952 0.0 0.0 0.0 4.860632709308395 -0.3477880116293523 8.12633735541106 56.59513527805539 25.315823878039115 -19.45351391945958 14.306974915379591 -0.6320075324316433 -10.170577737449692 0.0 0.0 0.0 -2.0379612591896707 0.038750434404475176 -8.173820009058732 -22.397696154534444 6.300259509677726 34.698141386278834 81.91348919147991 -15.840889267376724 46.23445843088924 0.0 0.0 0.0
363.65505806095723 143.9263748932864 200.5371156077201 7.3915127358435315 -16.06272840497249 1.7497970930355002 -0.18038748241881244 0.19496144808487564 0.04033742722040798 5.976450227910597 -0.7317972177342715 -3.649487910468233 0.0 0.0 0.0 4.917704987697095 -0.37917040803590685 8.362193508781205 56.56810338684161 25.516328929277904 -20.480286590965676 14.110042696108328 -0.574277262860739 -10.426007358201442 0.0 0.0 0.0 -2.064730995629726 0.03261454960200247 -8.414146341335814 -23.562043855746094 7.286522802143669 35.223218781268045 77.0972036900763 -16.56186861933811 49.15087173686065 0.0 0.0 0.0
361.4838324640747 142.649009872804 201.93914719257478 7.297149897763225 -16.668585468889162 2.327552103698462 -0.19173692677622775 0.2530836914560222 0.04391792859984981 6.094265587956838 -0.3642999539916565 -3.744144603219801 0.0 0.0 0.0 4.969152836237558 -0.4131652292256122 8.608074713091671 56.5304713195096 25.710996593451096 -21.50135150943223 13.91138865066962 -0.5182211694018962 -10.676203994434799 0.0 0.0 0.0 -2.0941431888844324 0.026295083854896168 -8.662801358978106 -24.711650995306613 8.263409797599937 35.82393043773542 71.98656685406907 -16.76876701327563 51.84855317182251 0.0 0.0 0.0
